<?xml version="1.0" encoding="UTF-8" standalone="no"?>
<!DOCTYPE svg PUBLIC "-//W3C//DTD SVG 1.1//EN"
 "http://www.w3.org/Graphics/SVG/1.1/DTD/svg11.dtd">
<!-- Generated by graphviz version 14.1.2 (0)
 -->
<!-- Title: ntsc_js_controls Pages: 1 -->
<svg width="977pt" height="172pt"
 viewBox="0.00 0.00 977.00 172.00" xmlns="http://www.w3.org/2000/svg" xmlns:xlink="http://www.w3.org/1999/xlink">
<g id="graph0" class="graph" transform="scale(1 1) rotate(0) translate(4 167.53)">
<title>ntsc_js_controls</title>
<polygon fill="#0e0e11" stroke="none" points="-4,4 -4,-167.53 973,-167.53 973,4 -4,4"/>
<!-- def -->
<g id="node1" class="node">
<title>def</title>
<path fill="#2f5138" stroke="#ffffff" stroke-opacity="0.149020" d="M205.42,-163.53C205.42,-163.53 91.12,-163.53 91.12,-163.53 85.12,-163.53 79.12,-157.53 79.12,-151.53 79.12,-151.53 79.12,-86.12 79.12,-86.12 79.12,-80.12 85.12,-74.12 91.12,-74.12 91.12,-74.12 205.42,-74.12 205.42,-74.12 211.42,-74.12 217.42,-80.12 217.42,-86.12 217.42,-86.12 217.42,-151.53 217.42,-151.53 217.42,-157.53 211.42,-163.53 205.42,-163.53"/>
<text xml:space="preserve" text-anchor="start" x="93.52" y="-143" font-family="Helvetica,Arial,sans-serif" font-size="11.00" fill="#e8ebf1">PARAM_DEFS</text>
<text xml:space="preserve" text-anchor="start" x="93.52" y="-131.75" font-family="Helvetica,Arial,sans-serif" font-size="11.00" fill="#e8ebf1">src/core/gpu/prelude.ts</text>
<text xml:space="preserve" text-anchor="start" x="93.52" y="-107.5" font-family="Helvetica,Arial,sans-serif" font-size="11.00" fill="#e8ebf1">the GPU&#45;side field.</text>
<text xml:space="preserve" text-anchor="start" x="93.52" y="-96.25" font-family="Helvetica,Arial,sans-serif" font-size="11.00" fill="#e8ebf1">field order here IS the</text>
<text xml:space="preserve" text-anchor="start" x="93.52" y="-85" font-family="Helvetica,Arial,sans-serif" font-size="11.00" fill="#e8ebf1">GPU memory layout</text>
</g>
<!-- ctl -->
<g id="node2" class="node">
<title>ctl</title>
<path fill="#25334d" stroke="#ffffff" stroke-opacity="0.149020" d="M461.85,-163.53C461.85,-163.53 344.55,-163.53 344.55,-163.53 338.55,-163.53 332.55,-157.53 332.55,-151.53 332.55,-151.53 332.55,-86.12 332.55,-86.12 332.55,-80.12 338.55,-74.12 344.55,-74.12 344.55,-74.12 461.85,-74.12 461.85,-74.12 467.85,-74.12 473.85,-80.12 473.85,-86.12 473.85,-86.12 473.85,-151.53 473.85,-151.53 473.85,-157.53 467.85,-163.53 461.85,-163.53"/>
<text xml:space="preserve" text-anchor="start" x="346.95" y="-143" font-family="Helvetica,Arial,sans-serif" font-size="11.00" fill="#e8ebf1">DEFAULT_CONTROLS</text>
<text xml:space="preserve" text-anchor="start" x="346.95" y="-131.75" font-family="Helvetica,Arial,sans-serif" font-size="11.00" fill="#e8ebf1">src/core/controls.ts</text>
<text xml:space="preserve" text-anchor="start" x="346.95" y="-107.5" font-family="Helvetica,Arial,sans-serif" font-size="11.00" fill="#e8ebf1">the user&#45;facing value,</text>
<text xml:space="preserve" text-anchor="start" x="346.95" y="-96.25" font-family="Helvetica,Arial,sans-serif" font-size="11.00" fill="#e8ebf1">in physical units</text>
<text xml:space="preserve" text-anchor="start" x="346.95" y="-85" font-family="Helvetica,Arial,sans-serif" font-size="11.00" fill="#e8ebf1">(µs, Hz, IRE)</text>
</g>
<!-- def&#45;&gt;ctl -->
<g id="edge1" class="edge">
<title>def&#45;&gt;ctl</title>
<path fill="none" stroke="#8b95a5" d="M217.72,-118.83C249.66,-118.83 287.9,-118.83 321.27,-118.83"/>
<polygon fill="#8b95a5" stroke="#8b95a5" points="320.87,-122.33 330.87,-118.83 320.87,-115.33 320.87,-122.33"/>
</g>
<!-- uni -->
<g id="node3" class="node">
<title>uni</title>
<path fill="#5a2f34" stroke="#ffffff" stroke-opacity="0.149020" d="M645.9,-157.91C645.9,-157.91 521.85,-157.91 521.85,-157.91 515.85,-157.91 509.85,-151.91 509.85,-145.91 509.85,-145.91 509.85,-91.75 509.85,-91.75 509.85,-85.75 515.85,-79.75 521.85,-79.75 521.85,-79.75 645.9,-79.75 645.9,-79.75 651.9,-79.75 657.9,-85.75 657.9,-91.75 657.9,-91.75 657.9,-145.91 657.9,-145.91 657.9,-151.91 651.9,-157.91 645.9,-157.91"/>
<text xml:space="preserve" text-anchor="start" x="524.25" y="-137.38" font-family="Helvetica,Arial,sans-serif" font-size="11.00" fill="#e8ebf1">uniformValues()</text>
<text xml:space="preserve" text-anchor="start" x="524.25" y="-126.13" font-family="Helvetica,Arial,sans-serif" font-size="11.00" fill="#e8ebf1">src/core/gpu/pipeline.ts</text>
<text xml:space="preserve" text-anchor="start" x="524.25" y="-101.88" font-family="Helvetica,Arial,sans-serif" font-size="11.00" fill="#e8ebf1">convert units, fold in</text>
<text xml:space="preserve" text-anchor="start" x="524.25" y="-90.63" font-family="Helvetica,Arial,sans-serif" font-size="11.00" fill="#e8ebf1">any per&#45;frame CPU state</text>
</g>
<!-- ctl&#45;&gt;uni -->
<g id="edge2" class="edge">
<title>ctl&#45;&gt;uni</title>
<path fill="none" stroke="#8b95a5" d="M474.3,-118.83C482.15,-118.83 490.19,-118.83 498.19,-118.83"/>
<polygon fill="#8b95a5" stroke="#8b95a5" points="497.93,-122.33 507.93,-118.83 497.93,-115.33 497.93,-122.33"/>
</g>
<!-- ui -->
<g id="node4" class="node">
<title>ui</title>
<path fill="#3b3260" stroke="#ffffff" stroke-opacity="0.149020" d="M787.95,-157.91C787.95,-157.91 705.9,-157.91 705.9,-157.91 699.9,-157.91 693.9,-151.91 693.9,-145.91 693.9,-145.91 693.9,-91.75 693.9,-91.75 693.9,-85.75 699.9,-79.75 705.9,-79.75 705.9,-79.75 787.95,-79.75 787.95,-79.75 793.95,-79.75 799.95,-85.75 799.95,-91.75 799.95,-91.75 799.95,-145.91 799.95,-145.91 799.95,-151.91 793.95,-157.91 787.95,-157.91"/>
<text xml:space="preserve" text-anchor="start" x="708.3" y="-137.38" font-family="Helvetica,Arial,sans-serif" font-size="11.00" fill="#e8ebf1">GROUPS</text>
<text xml:space="preserve" text-anchor="start" x="708.3" y="-126.13" font-family="Helvetica,Arial,sans-serif" font-size="11.00" fill="#e8ebf1">src/ui/controls.ts</text>
<text xml:space="preserve" text-anchor="start" x="708.3" y="-101.88" font-family="Helvetica,Arial,sans-serif" font-size="11.00" fill="#e8ebf1">the slider. every</text>
<text xml:space="preserve" text-anchor="start" x="708.3" y="-90.63" font-family="Helvetica,Arial,sans-serif" font-size="11.00" fill="#e8ebf1">control has one</text>
</g>
<!-- uni&#45;&gt;ui -->
<g id="edge3" class="edge">
<title>uni&#45;&gt;ui</title>
<path fill="none" stroke="#8b95a5" d="M658.33,-118.83C666.36,-118.83 674.48,-118.83 682.37,-118.83"/>
<polygon fill="#8b95a5" stroke="#8b95a5" points="682.22,-122.33 692.22,-118.83 682.22,-115.33 682.22,-122.33"/>
</g>
<!-- guard -->
<g id="node6" class="node">
<title>guard</title>
<path fill="none" stroke="none" d="M284.55,-51.66C284.55,-51.66 12,-51.66 12,-51.66 6,-51.66 0,-45.66 0,-39.66 0,-39.66 0,-12 0,-12 0,-6 6,0 12,0 12,0 284.55,0 284.55,0 290.55,0 296.55,-6 296.55,-12 296.55,-12 296.55,-39.66 296.55,-39.66 296.55,-45.66 290.55,-51.66 284.55,-51.66"/>
<text xml:space="preserve" text-anchor="start" x="14.4" y="-32.08" font-family="Helvetica,Arial,sans-serif" font-size="10.00" fill="#e0a83a">a field in PARAM_DEFS that uniformValues() does not supply</text>
<text xml:space="preserve" text-anchor="start" x="14.4" y="-21.58" font-family="Helvetica,Arial,sans-serif" font-size="10.00" fill="#e0a83a">is a TypeScript error, by design — that is the guard</text>
<text xml:space="preserve" text-anchor="start" x="14.4" y="-11.08" font-family="Helvetica,Arial,sans-serif" font-size="10.00" fill="#e0a83a">against a uniform that silently reads zero on the GPU</text>
</g>
<!-- uni&#45;&gt;guard -->
<g id="edge5" class="edge">
<title>uni&#45;&gt;guard</title>
<path fill="none" stroke="#e0a83a" stroke-dasharray="5,2" d="M515.25,-79.37C501.88,-72.94 487.7,-67.02 473.85,-62.83 417.13,-45.66 352.63,-36.34 296.15,-31.32"/>
</g>
<!-- pre -->
<g id="node5" class="node">
<title>pre</title>
<path fill="#2b313b" stroke="#ffffff" stroke-dasharray="5,2" stroke-opacity="0.149020" d="M957,-157.91C957,-157.91 847.95,-157.91 847.95,-157.91 841.95,-157.91 835.95,-151.91 835.95,-145.91 835.95,-145.91 835.95,-91.75 835.95,-91.75 835.95,-85.75 841.95,-79.75 847.95,-79.75 847.95,-79.75 957,-79.75 957,-79.75 963,-79.75 969,-85.75 969,-91.75 969,-91.75 969,-145.91 969,-145.91 969,-151.91 963,-157.91 957,-157.91"/>
<text xml:space="preserve" text-anchor="start" x="850.35" y="-137.38" font-family="Helvetica,Arial,sans-serif" font-size="11.00" fill="#e8ebf1">presets</text>
<text xml:space="preserve" text-anchor="start" x="850.35" y="-126.13" font-family="Helvetica,Arial,sans-serif" font-size="11.00" fill="#e8ebf1">src/ui/presets.ts</text>
<text xml:space="preserve" text-anchor="start" x="850.35" y="-101.88" font-family="Helvetica,Arial,sans-serif" font-size="11.00" fill="#e8ebf1">optional — a look that</text>
<text xml:space="preserve" text-anchor="start" x="850.35" y="-90.63" font-family="Helvetica,Arial,sans-serif" font-size="11.00" fill="#e8ebf1">reaches for it</text>
</g>
<!-- ui&#45;&gt;pre -->
<g id="edge4" class="edge">
<title>ui&#45;&gt;pre</title>
<path fill="none" stroke="#8b95a5" d="M800.34,-118.83C808.07,-118.83 816.18,-118.83 824.29,-118.83"/>
<polygon fill="#8b95a5" stroke="#8b95a5" points="824.21,-122.33 834.21,-118.83 824.21,-115.33 824.21,-122.33"/>
</g>
</g>
</svg>
