<?xml version="1.0" encoding="UTF-8" standalone="no"?>
<!DOCTYPE svg PUBLIC "-//W3C//DTD SVG 1.1//EN"
 "http://www.w3.org/Graphics/SVG/1.1/DTD/svg11.dtd">
<!-- Generated by graphviz version 14.1.2 (0)
 -->
<!-- Title: ntsc_js_simple Pages: 1 -->
<svg width="851pt" height="177pt"
 viewBox="0.00 0.00 851.00 177.00" xmlns="http://www.w3.org/2000/svg" xmlns:xlink="http://www.w3.org/1999/xlink">
<g id="graph0" class="graph" transform="scale(1 1) rotate(0) translate(4 172.88)">
<title>ntsc_js_simple</title>
<!-- src -->
<g id="node1" class="node">
<title>src</title>
<path fill="#e7eefc" stroke="#333333" stroke-opacity="0.133333" d="M164.43,-129.88C164.43,-129.88 12,-129.88 12,-129.88 6,-129.88 0,-123.88 0,-117.88 0,-117.88 0,-83.47 0,-83.47 0,-77.47 6,-71.47 12,-71.47 12,-71.47 164.43,-71.47 164.43,-71.47 170.43,-71.47 176.43,-77.47 176.43,-83.47 176.43,-83.47 176.43,-117.88 176.43,-117.88 176.43,-123.88 170.43,-129.88 164.43,-129.88"/>
<text xml:space="preserve" text-anchor="middle" x="88.22" y="-108.4" font-family="Helvetica,Arial,sans-serif" font-size="12.00" fill="#111111">Source A</text>
<text xml:space="preserve" text-anchor="middle" x="88.22" y="-95.65" font-family="Helvetica,Arial,sans-serif" font-size="12.00" fill="#111111">your input, and the encoder</text>
<text xml:space="preserve" text-anchor="middle" x="88.22" y="-82.9" font-family="Helvetica,Arial,sans-serif" font-size="12.00" fill="#111111">that makes it a waveform</text>
</g>
<!-- mix -->
<g id="node2" class="node">
<title>mix</title>
<path fill="#cfe3cb" stroke="#333333" stroke-opacity="0.133333" d="M350.86,-129.88C350.86,-129.88 225.43,-129.88 225.43,-129.88 219.43,-129.88 213.43,-123.88 213.43,-117.88 213.43,-117.88 213.43,-83.47 213.43,-83.47 213.43,-77.47 219.43,-71.47 225.43,-71.47 225.43,-71.47 350.86,-71.47 350.86,-71.47 356.86,-71.47 362.86,-77.47 362.86,-83.47 362.86,-83.47 362.86,-117.88 362.86,-117.88 362.86,-123.88 356.86,-129.88 350.86,-129.88"/>
<text xml:space="preserve" text-anchor="middle" x="288.15" y="-108.4" font-family="Helvetica,Arial,sans-serif" font-size="12.00" fill="#111111">Mix</text>
<text xml:space="preserve" text-anchor="middle" x="288.15" y="-95.65" font-family="Helvetica,Arial,sans-serif" font-size="12.00" fill="#111111">a second input beaten</text>
<text xml:space="preserve" text-anchor="middle" x="288.15" y="-82.9" font-family="Helvetica,Arial,sans-serif" font-size="12.00" fill="#111111">against the first</text>
</g>
<!-- src&#45;&gt;mix -->
<g id="edge1" class="edge">
<title>src&#45;&gt;mix</title>
<path fill="none" stroke="#555555" d="M176.89,-100.68C185.12,-100.68 193.45,-100.68 201.65,-100.68"/>
<polygon fill="#555555" stroke="#555555" points="201.62,-104.18 211.62,-100.68 201.62,-97.18 201.62,-104.18"/>
</g>
<!-- mix&#45;&gt;mix -->
<g id="edge7" class="edge">
<title>mix&#45;&gt;mix</title>
<path fill="none" stroke="#c8961a" stroke-dasharray="5,2" d="M270.67,-130.18C270.67,-140.01 276.49,-147.88 288.15,-147.88 294.88,-147.88 299.67,-145.25 302.51,-141.13"/>
<polygon fill="#c8961a" stroke="#c8961a" points="305.84,-142.21 305.21,-131.64 299.11,-140.3 305.84,-142.21"/>
<text xml:space="preserve" text-anchor="start" x="236.77" y="-159.38" font-family="Helvetica,Arial,sans-serif" font-size="10.00" fill="#c8961a"> &#160;tape loop</text>
<text xml:space="preserve" text-anchor="start" x="236.77" y="-148.88" font-family="Helvetica,Arial,sans-serif" font-size="10.00" fill="#c8961a"> &#160;a deck across the bus</text>
</g>
<!-- chan -->
<g id="node3" class="node">
<title>chan</title>
<path fill="#e9c9c9" stroke="#333333" stroke-opacity="0.133333" d="M517.79,-129.88C517.79,-129.88 411.86,-129.88 411.86,-129.88 405.86,-129.88 399.86,-123.88 399.86,-117.88 399.86,-117.88 399.86,-83.47 399.86,-83.47 399.86,-77.47 405.86,-71.47 411.86,-71.47 411.86,-71.47 517.79,-71.47 517.79,-71.47 523.79,-71.47 529.79,-77.47 529.79,-83.47 529.79,-83.47 529.79,-117.88 529.79,-117.88 529.79,-123.88 523.79,-129.88 517.79,-129.88"/>
<text xml:space="preserve" text-anchor="middle" x="464.83" y="-108.4" font-family="Helvetica,Arial,sans-serif" font-size="12.00" fill="#111111">Channel</text>
<text xml:space="preserve" text-anchor="middle" x="464.83" y="-95.65" font-family="Helvetica,Arial,sans-serif" font-size="12.00" fill="#111111">damage the signal</text>
<text xml:space="preserve" text-anchor="middle" x="464.83" y="-82.9" font-family="Helvetica,Arial,sans-serif" font-size="12.00" fill="#111111">tape · RF · cable</text>
</g>
<!-- mix&#45;&gt;chan -->
<g id="edge2" class="edge">
<title>mix&#45;&gt;chan</title>
<path fill="none" stroke="#555555" d="M363.23,-100.68C371.54,-100.68 380.01,-100.68 388.34,-100.68"/>
<polygon fill="#555555" stroke="#555555" points="388.06,-104.18 398.06,-100.68 388.06,-97.18 388.06,-104.18"/>
</g>
<!-- rx -->
<g id="node4" class="node">
<title>rx</title>
<path fill="#d3cbeb" stroke="#333333" stroke-opacity="0.133333" d="M684.72,-129.88C684.72,-129.88 578.79,-129.88 578.79,-129.88 572.79,-129.88 566.79,-123.88 566.79,-117.88 566.79,-117.88 566.79,-83.47 566.79,-83.47 566.79,-77.47 572.79,-71.47 578.79,-71.47 578.79,-71.47 684.72,-71.47 684.72,-71.47 690.72,-71.47 696.72,-77.47 696.72,-83.47 696.72,-83.47 696.72,-117.88 696.72,-117.88 696.72,-123.88 690.72,-129.88 684.72,-129.88"/>
<text xml:space="preserve" text-anchor="middle" x="631.76" y="-108.4" font-family="Helvetica,Arial,sans-serif" font-size="12.00" fill="#111111">Receiver</text>
<text xml:space="preserve" text-anchor="middle" x="631.76" y="-95.65" font-family="Helvetica,Arial,sans-serif" font-size="12.00" fill="#111111">imperfect TV</text>
<text xml:space="preserve" text-anchor="middle" x="631.76" y="-82.9" font-family="Helvetica,Arial,sans-serif" font-size="12.00" fill="#111111">decodes it → RGB</text>
</g>
<!-- chan&#45;&gt;rx -->
<g id="edge3" class="edge">
<title>chan&#45;&gt;rx</title>
<path fill="none" stroke="#555555" d="M530.06,-100.68C538.27,-100.68 546.73,-100.68 555.1,-100.68"/>
<polygon fill="#555555" stroke="#555555" points="554.91,-104.18 564.91,-100.68 554.91,-97.18 554.91,-104.18"/>
</g>
<!-- rx&#45;&gt;mix -->
<g id="edge6" class="edge">
<title>rx&#45;&gt;mix</title>
<path fill="none" stroke="#c8961a" stroke-dasharray="5,2" d="M591.21,-71C573.41,-59.44 551.54,-47.57 529.79,-41.68 474.05,-26.58 455.88,-27.68 399.86,-41.68 380.25,-46.57 360.31,-55.67 342.86,-65.28"/>
<polygon fill="#c8961a" stroke="#c8961a" points="341.16,-62.23 334.21,-70.22 344.63,-68.31 341.16,-62.23"/>
<text xml:space="preserve" text-anchor="start" x="414.95" y="-53.18" font-family="Helvetica,Arial,sans-serif" font-size="10.00" fill="#c8961a"> &#160;mixer feedback</text>
<text xml:space="preserve" text-anchor="start" x="414.95" y="-42.68" font-family="Helvetica,Arial,sans-serif" font-size="10.00" fill="#c8961a"> &#160;composite off the bus</text>
</g>
<!-- screen -->
<g id="node5" class="node">
<title>screen</title>
<path fill="#dfe3ea" stroke="#333333" stroke-opacity="0.133333" d="M831.4,-129.88C831.4,-129.88 745.72,-129.88 745.72,-129.88 739.72,-129.88 733.72,-123.88 733.72,-117.88 733.72,-117.88 733.72,-83.47 733.72,-83.47 733.72,-77.47 739.72,-71.47 745.72,-71.47 745.72,-71.47 831.4,-71.47 831.4,-71.47 837.4,-71.47 843.4,-77.47 843.4,-83.47 843.4,-83.47 843.4,-117.88 843.4,-117.88 843.4,-123.88 837.4,-129.88 831.4,-129.88"/>
<text xml:space="preserve" text-anchor="middle" x="788.56" y="-108.4" font-family="Helvetica,Arial,sans-serif" font-size="12.00" fill="#111111">Screen</text>
<text xml:space="preserve" text-anchor="middle" x="788.56" y="-95.65" font-family="Helvetica,Arial,sans-serif" font-size="12.00" fill="#111111">scanline beam</text>
<text xml:space="preserve" text-anchor="middle" x="788.56" y="-82.9" font-family="Helvetica,Arial,sans-serif" font-size="12.00" fill="#111111">on a lit tube</text>
</g>
<!-- rx&#45;&gt;screen -->
<g id="edge4" class="edge">
<title>rx&#45;&gt;screen</title>
<path fill="none" stroke="#555555" d="M697.06,-100.68C705.4,-100.68 713.95,-100.68 722.3,-100.68"/>
<polygon fill="#555555" stroke="#555555" points="722.02,-104.18 732.02,-100.68 722.02,-97.18 722.02,-104.18"/>
</g>
<!-- screen&#45;&gt;src -->
<g id="edge5" class="edge">
<title>screen&#45;&gt;src</title>
<path fill="none" stroke="#3aa049" stroke-dasharray="5,2" d="M733.4,-73.86C682.34,-50.27 602.95,-17.82 529.79,-5.68 400.49,15.79 251.76,-31.51 164.39,-66.78"/>
<polygon fill="#3aa049" stroke="#3aa049" points="163.12,-63.52 155.19,-70.55 165.77,-70 163.12,-63.52"/>
<text xml:space="preserve" text-anchor="start" x="411.95" y="-17.18" font-family="Helvetica,Arial,sans-serif" font-size="10.00" fill="#3aa049"> &#160;camera feedback</text>
<text xml:space="preserve" text-anchor="start" x="411.95" y="-6.68" font-family="Helvetica,Arial,sans-serif" font-size="10.00" fill="#3aa049"> &#160;a lens on the tube face</text>
</g>
</g>
</svg>
